<?xml version="1.0" encoding="UTF-8" standalone="no"?><svg xmlns="http://www.w3.org/2000/svg" xmlns:xlink="http://www.w3.org/1999/xlink" contentScriptType="application/ecmascript" contentStyleType="text/css" height="703px" preserveAspectRatio="none" style="width:422px;height:703px;" version="1.1" viewBox="0 0 422 703" width="422px" zoomAndPan="magnify"><defs><filter height="300%" id="fstj4el00im0" width="300%" x="-1" y="-1"><feGaussianBlur result="blurOut" stdDeviation="2.0"/><feColorMatrix in="blurOut" result="blurOut2" type="matrix" values="0 0 0 0 0 0 0 0 0 0 0 0 0 0 0 0 0 0 .4 0"/><feOffset dx="4.0" dy="4.0" in="blurOut2" result="blurOut3"/><feBlend in="SourceGraphic" in2="blurOut3" mode="normal"/></filter></defs><g><ellipse cx="208" cy="18" fill="#000000" filter="url(#fstj4el00im0)" rx="10" ry="10" style="stroke: none; stroke-width: 1.0;"/><rect fill="#FEFECE" filter="url(#fstj4el00im0)" height="576.6094" rx="12.5" ry="12.5" style="stroke: #A80036; stroke-width: 1.5;" width="404" x="6" y="88"/><rect fill="#FFFFFF" height="543" rx="12.5" ry="12.5" style="stroke: #FFFFFF; stroke-width: 1.0;" width="398" x="9" y="118.6094"/><line style="stroke: #A80036; stroke-width: 1.5;" x1="6" x2="410" y1="115.6094" y2="115.6094"/><text fill="#000000" font-family="sans-serif" font-size="14" lengthAdjust="spacingAndGlyphs" textLength="38" x="189" y="107.5332">Muxer</text><ellipse cx="89.5" cy="138.6094" fill="#000000" filter="url(#fstj4el00im0)" rx="10" ry="10" style="stroke: none; stroke-width: 1.0;"/><rect fill="#FEFECE" filter="url(#fstj4el00im0)" height="50" rx="12.5" ry="12.5" style="stroke: #A80036; stroke-width: 1.5;" width="145" x="17" y="185.6094"/><line style="stroke: #A80036; stroke-width: 1.5;" x1="17" x2="162" y1="213.2188" y2="213.2188"/><text fill="#000000" font-family="sans-serif" font-size="14" lengthAdjust="spacingAndGlyphs" textLength="125" x="27" y="205.1426">WaitForSettings_10</text><rect fill="#FEFECE" filter="url(#fstj4el00im0)" height="50" rx="12.5" ry="12.5" style="stroke: #A80036; stroke-width: 1.5;" width="132" x="23.5" y="322.6094"/><line style="stroke: #A80036; stroke-width: 1.5;" x1="23.5" x2="155.5" y1="350.2188" y2="350.2188"/><text fill="#000000" font-family="sans-serif" font-size="14" lengthAdjust="spacingAndGlyphs" textLength="112" x="33.5" y="342.1426">WaitForStarted_9</text><rect fill="#FEFECE" filter="url(#fstj4el00im0)" height="82.8906" rx="12.5" ry="12.5" style="stroke: #A80036; stroke-width: 1.5;" width="118" x="30.5" y="459.6094"/><line style="stroke: #A80036; stroke-width: 1.5;" x1="30.5" x2="148.5" y1="487.2188" y2="487.2188"/><text fill="#000000" font-family="sans-serif" font-size="14" lengthAdjust="spacingAndGlyphs" textLength="62" x="58.5" y="479.1426">Control_3</text><text fill="#000000" font-family="sans-serif" font-size="12" lengthAdjust="spacingAndGlyphs" textLength="79" x="35.5" y="504.6758">entry / do...end</text><text fill="#000000" font-family="sans-serif" font-size="12" lengthAdjust="spacingAndGlyphs" textLength="95" x="35.5" y="519.7695">power:In?Power /</text><text fill="#000000" font-family="sans-serif" font-size="12" lengthAdjust="spacingAndGlyphs" textLength="80" x="35.5" y="534.8633">action do...end</text><rect fill="#FEFECE" filter="url(#fstj4el00im0)" height="52.7031" rx="12.5" ry="12.5" style="stroke: #A80036; stroke-width: 1.5;" width="99" x="40" y="596.6094"/><line style="stroke: #A80036; stroke-width: 1.5;" x1="40" x2="139" y1="624.2188" y2="624.2188"/><text fill="#000000" font-family="sans-serif" font-size="14" lengthAdjust="spacingAndGlyphs" textLength="70" x="54.5" y="616.1426">Finished_3</text><text fill="#000000" font-family="sans-serif" font-size="12" lengthAdjust="spacingAndGlyphs" textLength="79" x="45" y="641.6758">entry / do...end</text><!--link WaitForSettings_10 to WaitForStarted_9--><path d="M89.5,235.7444 C89.5,258.5444 89.5,292.7894 89.5,317.1804 " fill="none" id="WaitForSettings_10-WaitForStarted_9" style="stroke: #A80036; stroke-width: 1.0;"/><polygon fill="#A80036" points="89.5,322.2274,93.5,313.2274,89.5,317.2274,85.5,313.2274,89.5,322.2274" style="stroke: #A80036; stroke-width: 1.0;"/><text fill="#000000" font-family="sans-serif" font-size="13" lengthAdjust="spacingAndGlyphs" textLength="147" x="90.5" y="268.1045">settings:Loaded?Settings</text><text fill="#000000" font-family="sans-serif" font-size="13" lengthAdjust="spacingAndGlyphs" textLength="202" x="90.5" y="284.4561">action RunTime = settings.runTime</text><text fill="#000000" font-family="sans-serif" font-size="13" lengthAdjust="spacingAndGlyphs" textLength="0" x="94.5" y="300.8076"/><!--link WaitForStarted_9 to Control_3--><path d="M89.5,372.6154 C89.5,394.4384 89.5,427.2384 89.5,454.1034 " fill="none" id="WaitForStarted_9-Control_3" style="stroke: #A80036; stroke-width: 1.0;"/><polygon fill="#A80036" points="89.5,459.3924,93.5,450.3924,89.5,454.3924,85.5,450.3924,89.5,459.3924" style="stroke: #A80036; stroke-width: 1.0;"/><text fill="#000000" font-family="sans-serif" font-size="13" lengthAdjust="spacingAndGlyphs" textLength="142" x="90.5" y="405.1045">Rover?SimulationStarted</text><text fill="#000000" font-family="sans-serif" font-size="13" lengthAdjust="spacingAndGlyphs" textLength="156" x="90.5" y="421.4561">action Timer!timer_start(...)</text><text fill="#000000" font-family="sans-serif" font-size="13" lengthAdjust="spacingAndGlyphs" textLength="0" x="94.5" y="437.8076"/><!--link Control_3 to Control_3--><path d="M148.579,489.1074 C159.13,490.6674 166.5,494.6684 166.5,501.1094 C166.5,506.4434 161.446,510.1044 153.716,512.0904 " fill="none" id="Control_3-Control_3" style="stroke: #A80036; stroke-width: 1.0;"/><polygon fill="#A80036" points="148.579,513.1114,158.1859,515.281,153.4832,512.1371,156.6271,507.4344,148.579,513.1114" style="stroke: #A80036; stroke-width: 1.0;"/><text fill="#000000" font-family="sans-serif" font-size="13" lengthAdjust="spacingAndGlyphs" textLength="198" x="172.5" y="506.6045">t:Timer?timer_timeout[(t.id == 10)]</text><!--link Control_3 to Finished_3--><path d="M89.5,542.7364 C89.5,558.6019 89.5,576.4925 89.5,591.2669 " fill="none" id="Control_3-Finished_3" style="stroke: #A80036; stroke-width: 1.0;"/><polygon fill="#A80036" points="89.5,596.5595,93.5,587.5595,89.5,591.5595,85.5,587.5595,89.5,596.5595" style="stroke: #A80036; stroke-width: 1.0;"/><text fill="#000000" font-family="sans-serif" font-size="13" lengthAdjust="spacingAndGlyphs" textLength="198" x="90.5" y="575.1045">t:Timer?timer_timeout[(t.id == 11)]</text><!--link *start*Muxer to WaitForSettings_10--><path d="M89.5,148.7604 C89.5,156.7954 89.5,168.9354 89.5,180.2634 " fill="none" id="*start*Muxer-WaitForSettings_10" style="stroke: #A80036; stroke-width: 1.0;"/><polygon fill="#A80036" points="89.5,185.3934,93.5,176.3934,89.5,180.3934,85.5,176.3934,89.5,185.3934" style="stroke: #A80036; stroke-width: 1.0;"/><!--link *start to Muxer--><path d="M208,28.171 C208,38.854 208,58.179 208,82.444 " fill="none" id="*start-Muxer" style="stroke: #A80036; stroke-width: 1.0;"/><polygon fill="#A80036" points="208,87.696,212,78.696,208,82.696,204,78.696,208,87.696" style="stroke: #A80036; stroke-width: 1.0;"/><text fill="#000000" font-family="sans-serif" font-size="14" lengthAdjust="spacingAndGlyphs" textLength="211" x="108.5" y="689.5332">Behavior of thing ControllerMuxer</text><!--
@startuml
skinparam defaultTextAlignment left
caption Behavior of thing ControllerMuxer
[*] - -> Muxer
state Muxer{
state WaitForSettings_10{

WaitForSettings_10 - -> WaitForStarted_9 : settings:Loaded?Settings\naction RunTime = settings.runTime\n
}
state WaitForStarted_9{

WaitForStarted_9 - -> Control_3 : Rover?SimulationStarted\naction Timer!timer_start(...)\n
}
state Control_3{
	Control_3 : entry / do...end

Control_3 - -> Control_3 : t:Timer?timer_timeout[(t.id == 10)]

Control_3 - -> Finished_3 : t:Timer?timer_timeout[(t.id == 11)]
	Control_3 : power:In?Power / \naction do...end
}
state Finished_3{
	Finished_3 : entry / do...end
}
[*] - -> WaitForSettings_10
}
@enduml

PlantUML version 1.2017.15(Mon Jul 03 18:45:34 CEST 2017)
(GPL source distribution)
Java Runtime: Java(TM) SE Runtime Environment
JVM: Java HotSpot(TM) 64-Bit Server VM
Java Version: 1.8.0_151-b12
Operating System: Windows 10
OS Version: 10.0
Default Encoding: Cp1252
Language: en
Country: GB
--></g></svg>