<?xml version="1.0" encoding="UTF-8" standalone="no"?><svg xmlns="http://www.w3.org/2000/svg" xmlns:xlink="http://www.w3.org/1999/xlink" contentScriptType="application/ecmascript" contentStyleType="text/css" height="1032px" preserveAspectRatio="none" style="width:1099px;height:1032px;" version="1.1" viewBox="0 0 1099 1032" width="1099px" zoomAndPan="magnify"><defs><filter height="300%" id="f34ibawy0rjnj" width="300%" x="-1" y="-1"><feGaussianBlur result="blurOut" stdDeviation="2.0"/><feColorMatrix in="blurOut" result="blurOut2" type="matrix" values="0 0 0 0 0 0 0 0 0 0 0 0 0 0 0 0 0 0 .4 0"/><feOffset dx="4.0" dy="4.0" in="blurOut2" result="blurOut3"/><feBlend in="SourceGraphic" in2="blurOut3" mode="normal"/></filter></defs><g><!--entity parameterestimator--><rect fill="#FEFECE" filter="url(#f34ibawy0rjnj)" height="55.2188" style="stroke: #A80036; stroke-width: 1.5;" width="143" x="212.5" y="540"/><rect fill="#FEFECE" height="5" style="stroke: #A80036; stroke-width: 1.5;" width="10" x="207.5" y="545"/><rect fill="#FEFECE" height="5" style="stroke: #A80036; stroke-width: 1.5;" width="10" x="207.5" y="585.2188"/><text fill="#000000" font-family="sans-serif" font-size="14" font-style="italic" lengthAdjust="spacingAndGlyphs" textLength="46" x="261" y="564.5332">«PSM»</text><text fill="#000000" font-family="sans-serif" font-size="14" lengthAdjust="spacingAndGlyphs" textLength="123" x="222.5" y="582.1426">parameterestimator</text><!--entity communicator--><rect fill="#FEFECE" filter="url(#f34ibawy0rjnj)" height="55.2188" style="stroke: #A80036; stroke-width: 1.5;" width="108" x="390" y="806"/><rect fill="#FEFECE" height="5" style="stroke: #A80036; stroke-width: 1.5;" width="10" x="385" y="811"/><rect fill="#FEFECE" height="5" style="stroke: #A80036; stroke-width: 1.5;" width="10" x="385" y="851.2188"/><text fill="#000000" font-family="sans-serif" font-size="14" font-style="italic" lengthAdjust="spacingAndGlyphs" textLength="46" x="421" y="830.5332">«PSM»</text><text fill="#000000" font-family="sans-serif" font-size="14" lengthAdjust="spacingAndGlyphs" textLength="88" x="400" y="848.1426">communicator</text><!--entity timer--><rect fill="#FEFECE" filter="url(#f34ibawy0rjnj)" height="55.2188" style="stroke: #A80036; stroke-width: 1.5;" width="66" x="90" y="806"/><rect fill="#FEFECE" height="5" style="stroke: #A80036; stroke-width: 1.5;" width="10" x="85" y="811"/><rect fill="#FEFECE" height="5" style="stroke: #A80036; stroke-width: 1.5;" width="10" x="85" y="851.2188"/><text fill="#000000" font-family="sans-serif" font-size="14" font-style="italic" lengthAdjust="spacingAndGlyphs" textLength="46" x="100" y="830.5332">«PSM»</text><text fill="#000000" font-family="sans-serif" font-size="14" lengthAdjust="spacingAndGlyphs" textLength="31" x="107.5" y="848.1426">timer</text><!--entity muxer--><rect fill="#FEFECE" filter="url(#f34ibawy0rjnj)" height="55.2188" style="stroke: #A80036; stroke-width: 1.5;" width="66" x="478" y="8"/><rect fill="#FEFECE" height="5" style="stroke: #A80036; stroke-width: 1.5;" width="10" x="473" y="13"/><rect fill="#FEFECE" height="5" style="stroke: #A80036; stroke-width: 1.5;" width="10" x="473" y="53.2188"/><text fill="#000000" font-family="sans-serif" font-size="14" font-style="italic" lengthAdjust="spacingAndGlyphs" textLength="46" x="488" y="32.5332">«PSM»</text><text fill="#000000" font-family="sans-serif" font-size="14" lengthAdjust="spacingAndGlyphs" textLength="38" x="492" y="50.1426">muxer</text><!--entity roverestimator--><rect fill="#FEFECE" filter="url(#f34ibawy0rjnj)" height="55.2188" style="stroke: #A80036; stroke-width: 1.5;" width="111" x="423.5" y="673"/><rect fill="#FEFECE" height="5" style="stroke: #A80036; stroke-width: 1.5;" width="10" x="418.5" y="678"/><rect fill="#FEFECE" height="5" style="stroke: #A80036; stroke-width: 1.5;" width="10" x="418.5" y="718.2188"/><text fill="#000000" font-family="sans-serif" font-size="14" font-style="italic" lengthAdjust="spacingAndGlyphs" textLength="41" x="458.5" y="697.5332">«PIM»</text><text fill="#000000" font-family="sans-serif" font-size="14" lengthAdjust="spacingAndGlyphs" textLength="91" x="433.5" y="715.1426">roverestimator</text><!--entity speedController--><rect fill="#FEFECE" filter="url(#f34ibawy0rjnj)" height="55.2188" style="stroke: #A80036; stroke-width: 1.5;" width="121" x="336.5" y="407"/><rect fill="#FEFECE" height="5" style="stroke: #A80036; stroke-width: 1.5;" width="10" x="331.5" y="412"/><rect fill="#FEFECE" height="5" style="stroke: #A80036; stroke-width: 1.5;" width="10" x="331.5" y="452.2188"/><text fill="#000000" font-family="sans-serif" font-size="14" font-style="italic" lengthAdjust="spacingAndGlyphs" textLength="46" x="374" y="431.5332">«PSM»</text><text fill="#000000" font-family="sans-serif" font-size="14" lengthAdjust="spacingAndGlyphs" textLength="101" x="346.5" y="449.1426">speedController</text><!--entity observation--><rect fill="#FEFECE" filter="url(#f34ibawy0rjnj)" height="55.2188" style="stroke: #A80036; stroke-width: 1.5;" width="94" x="87" y="939"/><rect fill="#FEFECE" height="5" style="stroke: #A80036; stroke-width: 1.5;" width="10" x="82" y="944"/><rect fill="#FEFECE" height="5" style="stroke: #A80036; stroke-width: 1.5;" width="10" x="82" y="984.2188"/><text fill="#000000" font-family="sans-serif" font-size="14" font-style="italic" lengthAdjust="spacingAndGlyphs" textLength="46" x="111" y="963.5332">«PSM»</text><text fill="#000000" font-family="sans-serif" font-size="14" lengthAdjust="spacingAndGlyphs" textLength="74" x="97" y="981.1426">observation</text><!--entity control--><rect fill="#FEFECE" filter="url(#f34ibawy0rjnj)" height="55.2188" style="stroke: #A80036; stroke-width: 1.5;" width="66" x="317" y="939"/><rect fill="#FEFECE" height="5" style="stroke: #A80036; stroke-width: 1.5;" width="10" x="312" y="944"/><rect fill="#FEFECE" height="5" style="stroke: #A80036; stroke-width: 1.5;" width="10" x="312" y="984.2188"/><text fill="#000000" font-family="sans-serif" font-size="14" font-style="italic" lengthAdjust="spacingAndGlyphs" textLength="46" x="327" y="963.5332">«PSM»</text><text fill="#000000" font-family="sans-serif" font-size="14" lengthAdjust="spacingAndGlyphs" textLength="43" x="328.5" y="981.1426">control</text><!--entity parser--><rect fill="#FEFECE" filter="url(#f34ibawy0rjnj)" height="55.2188" style="stroke: #A80036; stroke-width: 1.5;" width="66" x="639" y="939"/><rect fill="#FEFECE" height="5" style="stroke: #A80036; stroke-width: 1.5;" width="10" x="634" y="944"/><rect fill="#FEFECE" height="5" style="stroke: #A80036; stroke-width: 1.5;" width="10" x="634" y="984.2188"/><text fill="#000000" font-family="sans-serif" font-size="14" font-style="italic" lengthAdjust="spacingAndGlyphs" textLength="46" x="649" y="963.5332">«PSM»</text><text fill="#000000" font-family="sans-serif" font-size="14" lengthAdjust="spacingAndGlyphs" textLength="41" x="651.5" y="981.1426">parser</text><!--entity headingController--><rect fill="#FEFECE" filter="url(#f34ibawy0rjnj)" height="55.2188" style="stroke: #A80036; stroke-width: 1.5;" width="133" x="324.5" y="274"/><rect fill="#FEFECE" height="5" style="stroke: #A80036; stroke-width: 1.5;" width="10" x="319.5" y="279"/><rect fill="#FEFECE" height="5" style="stroke: #A80036; stroke-width: 1.5;" width="10" x="319.5" y="319.2188"/><text fill="#000000" font-family="sans-serif" font-size="14" font-style="italic" lengthAdjust="spacingAndGlyphs" textLength="46" x="368" y="298.5332">«PSM»</text><text fill="#000000" font-family="sans-serif" font-size="14" lengthAdjust="spacingAndGlyphs" textLength="113" x="334.5" y="316.1426">headingController</text><!--entity distanceController--><rect fill="#FEFECE" filter="url(#f34ibawy0rjnj)" height="55.2188" style="stroke: #A80036; stroke-width: 1.5;" width="135" x="443.5" y="141"/><rect fill="#FEFECE" height="5" style="stroke: #A80036; stroke-width: 1.5;" width="10" x="438.5" y="146"/><rect fill="#FEFECE" height="5" style="stroke: #A80036; stroke-width: 1.5;" width="10" x="438.5" y="186.2188"/><text fill="#000000" font-family="sans-serif" font-size="14" font-style="italic" lengthAdjust="spacingAndGlyphs" textLength="46" x="488" y="165.5332">«PSM»</text><text fill="#000000" font-family="sans-serif" font-size="14" lengthAdjust="spacingAndGlyphs" textLength="115" x="453.5" y="183.1426">distanceController</text><!--entity leaderestimator--><rect fill="#FEFECE" filter="url(#f34ibawy0rjnj)" height="55.2188" style="stroke: #A80036; stroke-width: 1.5;" width="118" x="216" y="673"/><rect fill="#FEFECE" height="5" style="stroke: #A80036; stroke-width: 1.5;" width="10" x="211" y="678"/><rect fill="#FEFECE" height="5" style="stroke: #A80036; stroke-width: 1.5;" width="10" x="211" y="718.2188"/><text fill="#000000" font-family="sans-serif" font-size="14" font-style="italic" lengthAdjust="spacingAndGlyphs" textLength="41" x="254.5" y="697.5332">«PIM»</text><text fill="#000000" font-family="sans-serif" font-size="14" lengthAdjust="spacingAndGlyphs" textLength="98" x="226" y="715.1426">leaderestimator</text><!--link roverestimator to communicator--><path d="M501.847,728.218 C511.196,742.487 518.298,760.299 511,776 C505.613,787.59 496.547,797.658 486.797,805.954 " fill="none" id="roverestimator-communicator" style="stroke: #A80036; stroke-width: 1.0;"/><text fill="#000000" font-family="sans-serif" font-size="13" lengthAdjust="spacingAndGlyphs" textLength="88" x="516" y="772.4951">Rover =&gt; Rover</text><path d="M520.3927,772.5682 A10,10 0 0 0 507.5682 766.6073" fill="#FFFFFF" style="stroke: #A80036; stroke-width: 1.5;"/><ellipse cx="511" cy="776" fill="#FFFFFF" rx="6" ry="6" style="stroke: #A80036; stroke-width: 1.5;"/><!--link distanceController to parser--><path d="M578.812,194.075 C622.812,214.866 672,249.51 672,300.5 C672,300.5 672,300.5 672,834.5 C672,870.661 672,912.4378 672,938.9048 " fill="none" id="distanceController-parser" style="stroke: #A80036; stroke-width: 1.0;"/><text fill="#000000" font-family="sans-serif" font-size="13" lengthAdjust="spacingAndGlyphs" textLength="108" x="673" y="572.9951">Loaded =&gt; Loaded</text><path d="M679.0711,360.1789 A10,10 0 0 0 664.9289 360.1789" fill="#FFFFFF" style="stroke: #A80036; stroke-width: 1.5;"/><ellipse cx="672" cy="367.25" fill="#FFFFFF" rx="6" ry="6" style="stroke: #A80036; stroke-width: 1.5;"/><!--link parameterestimator to timer--><path d="M212.281,592.186 C174.975,608.578 132.726,634.494 111,673 C87.4607,714.719 101.0928,772.635 112.49,805.978 " fill="none" id="parameterestimator-timer" style="stroke: #A80036; stroke-width: 1.0;"/><text fill="#000000" font-family="sans-serif" font-size="13" lengthAdjust="spacingAndGlyphs" textLength="85" x="112" y="705.9951">Timer =&gt; timer</text><path d="M120.6332,670.3163 A10,10 0 0 0 108.3163 663.3668" fill="#FFFFFF" style="stroke: #A80036; stroke-width: 1.5;"/><ellipse cx="111" cy="673" fill="#FFFFFF" rx="6" ry="6" style="stroke: #A80036; stroke-width: 1.5;"/><!--link communicator to observation--><path d="M389.9,838.7 C316.777,845.439 191.654,861.059 158,891 C144.498,903.013 138.547,922.6523 135.946,938.7511 " fill="none" id="communicator-observation" style="stroke: #A80036; stroke-width: 1.0;"/><text fill="#000000" font-family="sans-serif" font-size="13" lengthAdjust="spacingAndGlyphs" textLength="174" x="159" y="905.4951">ObservationSocket =&gt; Socket</text><path d="M267.4171,861.7742 A10,10 0 0 0 264.7741 847.8813" fill="#FFFFFF" style="stroke: #A80036; stroke-width: 1.5;"/><ellipse cx="259.1491" cy="856.1492" fill="#FFFFFF" rx="6" ry="6" style="stroke: #A80036; stroke-width: 1.5;"/><!--link muxer to communicator--><path d="M544.151,42.562 C626.728,58.603 835,105.234 835,167.5 C835,167.5 835,167.5 835,701.5 C835,771.659 605.803,811.177 498.367,825.847 " fill="none" id="muxer-communicator" style="stroke: #A80036; stroke-width: 1.0;"/><text fill="#000000" font-family="sans-serif" font-size="13" lengthAdjust="spacingAndGlyphs" textLength="88" x="836" y="439.9951">Rover =&gt; Rover</text><path d="M842.0711,227.1789 A10,10 0 0 0 827.9289 227.1789" fill="#FFFFFF" style="stroke: #A80036; stroke-width: 1.5;"/><ellipse cx="835" cy="234.25" fill="#FFFFFF" rx="6" ry="6" style="stroke: #A80036; stroke-width: 1.5;"/><!--link parameterestimator to roverestimator--><path d="M355.85,582.561 C384.563,591.035 416.354,604.344 440,625 C454.513,637.678 464.429,657.089 470.629,672.919 " fill="none" id="parameterestimator-roverestimator" style="stroke: #A80036; stroke-width: 1.0;"/><text fill="#000000" font-family="sans-serif" font-size="13" lengthAdjust="spacingAndGlyphs" textLength="168" x="456" y="639.4951">RoverEstimator =&gt; Estimator</text><path d="M439.3266,615.0227 A10,10 0 0 0 430.0227 625.6734" fill="#FFFFFF" style="stroke: #A80036; stroke-width: 1.5;"/><ellipse cx="440" cy="625" fill="#FFFFFF" rx="6" ry="6" style="stroke: #A80036; stroke-width: 1.5;"/><!--link roverestimator to timer--><path d="M451.756,728.361 C433.888,744.503 409.232,764.149 384,776 C307.416,811.971 207.381,825.369 156.251,830.098 " fill="none" id="roverestimator-timer" style="stroke: #A80036; stroke-width: 1.0;"/><text fill="#000000" font-family="sans-serif" font-size="13" lengthAdjust="spacingAndGlyphs" textLength="85" x="414" y="772.4951">Timer =&gt; timer</text><path d="M268.9321,820.2644 A10,10 0 0 0 266.0799 806.4129" fill="#FFFFFF" style="stroke: #A80036; stroke-width: 1.5;"/><ellipse cx="260.5803" cy="814.7648" fill="#FFFFFF" rx="6" ry="6" style="stroke: #A80036; stroke-width: 1.5;"/><!--link communicator to parser--><path d="M472.643,861.296 C490.039,876.621 513.222,895.4324 536,909 C569.169,928.7569 610.525,944.8641 638.871,954.7533 " fill="none" id="communicator-parser" style="stroke: #A80036; stroke-width: 1.0;"/><text fill="#000000" font-family="sans-serif" font-size="13" lengthAdjust="spacingAndGlyphs" textLength="108" x="537" y="905.4951">Loaded =&gt; Loaded</text><path d="M533.5435,899.3064 A10,10 0 0 0 526.3064 911.4565" fill="#FFFFFF" style="stroke: #A80036; stroke-width: 1.5;"/><ellipse cx="536" cy="909" fill="#FFFFFF" rx="6" ry="6" style="stroke: #A80036; stroke-width: 1.5;"/><!--link muxer to timer--><path d="M477.866,37.931 C365.517,43.67 6,69.679 6,167.5 C6,167.5 6,167.5 6,701.5 C6,752.119 55.1951,792.173 89.7855,814.08 " fill="none" id="muxer-timer" style="stroke: #A80036; stroke-width: 1.0;"/><text fill="#000000" font-family="sans-serif" font-size="13" lengthAdjust="spacingAndGlyphs" textLength="85" x="7" y="439.9951">Timer =&gt; timer</text><path d="M13.0711,227.1789 A10,10 0 0 0 -1.0711 227.1789" fill="#FFFFFF" style="stroke: #A80036; stroke-width: 1.5;"/><ellipse cx="6" cy="234.25" fill="#FFFFFF" rx="6" ry="6" style="stroke: #A80036; stroke-width: 1.5;"/><!--link muxer to parser--><path d="M544.211,38.619 C650.901,46.322 978,77.294 978,167.5 C978,167.5 978,167.5 978,834.5 C978,952.2441 784.163,965.546 705.038,966.071 " fill="none" id="muxer-parser" style="stroke: #A80036; stroke-width: 1.0;"/><text fill="#000000" font-family="sans-serif" font-size="13" lengthAdjust="spacingAndGlyphs" textLength="108" x="979" y="506.4951">Loaded =&gt; Loaded</text><path d="M985.0711,243.8039 A10,10 0 0 0 970.9289 243.8039" fill="#FFFFFF" style="stroke: #A80036; stroke-width: 1.5;"/><ellipse cx="978" cy="250.875" fill="#FFFFFF" rx="6" ry="6" style="stroke: #A80036; stroke-width: 1.5;"/><!--link communicator to control--><path d="M389.893,853.444 C373.131,862.157 356.566,874.357 347,891 C338.808,905.2528 339.482,923.6993 342.242,938.6707 " fill="none" id="communicator-control" style="stroke: #A80036; stroke-width: 1.0;"/><text fill="#000000" font-family="sans-serif" font-size="13" lengthAdjust="spacingAndGlyphs" textLength="147" x="348" y="905.4951">ControlSocket =&gt; Socket</text><path d="M356.6542,888.3931 A10,10 0 0 0 344.3931 881.3458" fill="#FFFFFF" style="stroke: #A80036; stroke-width: 1.5;"/><ellipse cx="347" cy="891" fill="#FFFFFF" rx="6" ry="6" style="stroke: #A80036; stroke-width: 1.5;"/><!--link headingController to parameterestimator--><path d="M324.331,316.089 C275.333,329.942 212.091,356.8 181,407 C151.755,454.219 205.631,508.379 245.877,539.886 " fill="none" id="headingController-parameterestimator" style="stroke: #A80036; stroke-width: 1.0;"/><text fill="#000000" font-family="sans-serif" font-size="13" lengthAdjust="spacingAndGlyphs" textLength="136" x="182" y="439.9951">Estimator =&gt; Estimator</text><path d="M255.5954,350.5552 A10,10 0 0 0 248.5912 338.2694" fill="#FFFFFF" style="stroke: #A80036; stroke-width: 1.5;"/><ellipse cx="245.9504" cy="347.9144" fill="#FFFFFF" rx="6" ry="6" style="stroke: #A80036; stroke-width: 1.5;"/><!--link parameterestimator to leaderestimator--><path d="M269.538,595.031 C265.262,604.243 261.152,614.82 259,625 C255.635,640.92 259.197,658.74 263.807,672.959 " fill="none" id="parameterestimator-leaderestimator" style="stroke: #A80036; stroke-width: 1.0;"/><text fill="#000000" font-family="sans-serif" font-size="13" lengthAdjust="spacingAndGlyphs" textLength="175" x="260" y="639.4951">LeaderEstimator =&gt; Estimator</text><path d="M267.3806,619.5443 A10,10 0 0 0 253.5443 616.6194" fill="#FFFFFF" style="stroke: #A80036; stroke-width: 1.5;"/><ellipse cx="259" cy="625" fill="#FFFFFF" rx="6" ry="6" style="stroke: #A80036; stroke-width: 1.5;"/><!--link distanceController to headingController--><path d="M462.84,196.207 C450.451,204.617 437.852,214.7 428,226 C415.852,239.933 406.602,258.558 400.389,273.7 " fill="none" id="distanceController-headingController" style="stroke: #A80036; stroke-width: 1.0;"/><text fill="#000000" font-family="sans-serif" font-size="13" lengthAdjust="spacingAndGlyphs" textLength="55" x="429" y="240.4951">In =&gt; Out</text><path d="M437.9767,225.317 A10,10 0 0 0 427.317 216.0233" fill="#FFFFFF" style="stroke: #A80036; stroke-width: 1.5;"/><ellipse cx="428" cy="226" fill="#FFFFFF" rx="6" ry="6" style="stroke: #A80036; stroke-width: 1.5;"/><!--link muxer to distanceController--><path d="M511,63.01 C511,85.588 511,117.885 511,140.58 " fill="none" id="muxer-distanceController" style="stroke: #A80036; stroke-width: 1.0;"/><text fill="#000000" font-family="sans-serif" font-size="13" lengthAdjust="spacingAndGlyphs" textLength="55" x="512" y="107.4951">In =&gt; Out</text><path d="M518.0711,94.6801 A10,10 0 0 0 503.9289 94.6801" fill="#FFFFFF" style="stroke: #A80036; stroke-width: 1.5;"/><ellipse cx="511" cy="101.7511" fill="#FFFFFF" rx="6" ry="6" style="stroke: #A80036; stroke-width: 1.5;"/><!--link speedController to muxer--><path d="M364.139,406.686 C343.39,387.517 318.417,359.751 307,329 C298.492,306.084 298.507,296.922 307,274 C341.276,181.491 429.492,100.776 477.934,61.631 " fill="none" id="speedController-muxer" style="stroke: #A80036; stroke-width: 1.0;"/><text fill="#000000" font-family="sans-serif" font-size="13" lengthAdjust="spacingAndGlyphs" textLength="55" x="331" y="240.4951">In =&gt; Out</text><path d="M377.1736,148.4173 A10,10 0 0 0 387.7681 157.7852" fill="#FFFFFF" style="stroke: #A80036; stroke-width: 1.5;"/><ellipse cx="387.1548" cy="147.804" fill="#FFFFFF" rx="6" ry="6" style="stroke: #A80036; stroke-width: 1.5;"/><!--link distanceController to parameterestimator--><path d="M511.026,196.195 C510.859,272.205 508.632,485.88 489,510 C471.987,530.901 407.702,546.339 355.598,555.747 " fill="none" id="distanceController-parameterestimator" style="stroke: #A80036; stroke-width: 1.0;"/><text fill="#000000" font-family="sans-serif" font-size="13" lengthAdjust="spacingAndGlyphs" textLength="136" x="509" y="373.4951">Estimator =&gt; Estimator</text><path d="M514.7008,365.8174 A10,10 0 0 0 500.5735 365.1679" fill="#FFFFFF" style="stroke: #A80036; stroke-width: 1.5;"/><ellipse cx="507.3124" cy="372.5563" fill="#FFFFFF" rx="6" ry="6" style="stroke: #A80036; stroke-width: 1.5;"/><!--link headingController to speedController--><path d="M392.214,329.01 C393.248,351.588 394.728,383.885 395.767,406.58 " fill="none" id="headingController-speedController" style="stroke: #A80036; stroke-width: 1.0;"/><text fill="#000000" font-family="sans-serif" font-size="13" lengthAdjust="spacingAndGlyphs" textLength="55" x="396" y="373.4951">In =&gt; Out</text><path d="M400.7287,360.3639 A10,10 0 0 0 386.6014 361.0111" fill="#FFFFFF" style="stroke: #A80036; stroke-width: 1.5;"/><ellipse cx="393.9886" cy="367.7511" fill="#FFFFFF" rx="6" ry="6" style="stroke: #A80036; stroke-width: 1.5;"/><!--link leaderestimator to communicator--><path d="M268.29,728.002 C265.991,743.412 266.095,762.411 276,776 C301.921,811.559 351.304,825.021 389.849,829.978 " fill="none" id="leaderestimator-communicator" style="stroke: #A80036; stroke-width: 1.0;"/><text fill="#000000" font-family="sans-serif" font-size="13" lengthAdjust="spacingAndGlyphs" textLength="102" x="277" y="772.4951">Leader =&gt; Leader</text><path d="M324.3553,805.2294 A10,10 0 0 0 318.9552 818.2999" fill="#FFFFFF" style="stroke: #A80036; stroke-width: 1.5;"/><ellipse cx="328.1905" cy="814.4648" fill="#FFFFFF" rx="6" ry="6" style="stroke: #A80036; stroke-width: 1.5;"/><!--link speedController to parameterestimator--><path d="M373.222,462.121 C364.884,471.522 355.484,482.193 347,492 C333.369,507.757 318.293,525.57 306.307,539.827 " fill="none" id="speedController-parameterestimator" style="stroke: #A80036; stroke-width: 1.0;"/><text fill="#000000" font-family="sans-serif" font-size="13" lengthAdjust="spacingAndGlyphs" textLength="136" x="348" y="506.4951">Estimator =&gt; Estimator</text><path d="M356.9739,491.2786 A10,10 0 0 0 346.2786 482.0261" fill="#FFFFFF" style="stroke: #A80036; stroke-width: 1.5;"/><ellipse cx="347" cy="492" fill="#FFFFFF" rx="6" ry="6" style="stroke: #A80036; stroke-width: 1.5;"/><!--link leaderestimator to timer--><path d="M215.875,716.83 C192.367,725.527 166.75,738.659 149,758 C136.959,771.121 130.442,790.127 126.944,805.659 " fill="none" id="leaderestimator-timer" style="stroke: #A80036; stroke-width: 1.0;"/><text fill="#000000" font-family="sans-serif" font-size="13" lengthAdjust="spacingAndGlyphs" textLength="85" x="150" y="772.4951">Timer =&gt; timer</text><path d="M158.9908,757.5714 A10,10 0 0 0 148.5714 748.0092" fill="#FFFFFF" style="stroke: #A80036; stroke-width: 1.5;"/><ellipse cx="149" cy="758" fill="#FFFFFF" rx="6" ry="6" style="stroke: #A80036; stroke-width: 1.5;"/><text fill="#000000" font-family="sans-serif" font-size="14" lengthAdjust="spacingAndGlyphs" textLength="389" x="358.5" y="1018.5332">Instances and Connectors in configuration RoverControllerGo</text><!--
@startuml
caption Instances and Connectors in configuration RoverControllerGo
component parameterestimator<<PSM>>
component communicator<<PSM>>
component timer<<PSM>>
component muxer<<PSM>>
component roverestimator<<PIM>>
component speedController<<PSM>>
component observation<<PSM>>
component control<<PSM>>
component parser<<PSM>>
component headingController<<PSM>>
component distanceController<<PSM>>
component leaderestimator<<PIM>>
roverestimator -(0- communicator : Rover => Rover
distanceController -(0- parser : Loaded => Loaded
parameterestimator -(0- timer : Timer => timer
communicator -(0- observation : ObservationSocket => Socket
muxer -(0- communicator : Rover => Rover
parameterestimator -(0- roverestimator : RoverEstimator => Estimator
roverestimator -(0- timer : Timer => timer
communicator -(0- parser : Loaded => Loaded
muxer -(0- timer : Timer => timer
muxer -(0- parser : Loaded => Loaded
communicator -(0- control : ControlSocket => Socket
headingController -(0- parameterestimator : Estimator => Estimator
parameterestimator -(0- leaderestimator : LeaderEstimator => Estimator
distanceController -(0- headingController : In => Out
muxer -(0- distanceController : In => Out
speedController -(0- muxer : In => Out
distanceController -(0- parameterestimator : Estimator => Estimator
headingController -(0- speedController : In => Out
leaderestimator -(0- communicator : Leader => Leader
speedController -(0- parameterestimator : Estimator => Estimator
leaderestimator -(0- timer : Timer => timer
@enduml

PlantUML version 1.2017.15(Mon Jul 03 18:45:34 CEST 2017)
(GPL source distribution)
Java Runtime: Java(TM) SE Runtime Environment
JVM: Java HotSpot(TM) 64-Bit Server VM
Java Version: 1.8.0_151-b12
Operating System: Windows 10
OS Version: 10.0
Default Encoding: Cp1252
Language: en
Country: GB
--></g></svg>