<?xml version="1.0" encoding="UTF-8" standalone="no"?><svg xmlns="http://www.w3.org/2000/svg" xmlns:xlink="http://www.w3.org/1999/xlink" contentScriptType="application/ecmascript" contentStyleType="text/css" height="899px" preserveAspectRatio="none" style="width:1090px;height:899px;" version="1.1" viewBox="0 0 1090 899" width="1090px" zoomAndPan="magnify"><defs><filter height="300%" id="fgf8yf5a3qf57" width="300%" x="-1" y="-1"><feGaussianBlur result="blurOut" stdDeviation="2.0"/><feColorMatrix in="blurOut" result="blurOut2" type="matrix" values="0 0 0 0 0 0 0 0 0 0 0 0 0 0 0 0 0 0 .4 0"/><feOffset dx="4.0" dy="4.0" in="blurOut2" result="blurOut3"/><feBlend in="SourceGraphic" in2="blurOut3" mode="normal"/></filter></defs><g><!--entity timer--><rect fill="#FEFECE" filter="url(#fgf8yf5a3qf57)" height="55.2188" style="stroke: #A80036; stroke-width: 1.5;" width="66" x="68.041" y="673"/><rect fill="#FEFECE" height="5" style="stroke: #A80036; stroke-width: 1.5;" width="10" x="63.041" y="678"/><rect fill="#FEFECE" height="5" style="stroke: #A80036; stroke-width: 1.5;" width="10" x="63.041" y="718.2188"/><text fill="#000000" font-family="sans-serif" font-size="14" font-style="italic" lengthAdjust="spacingAndGlyphs" textLength="46" x="78.041" y="697.5332">«PSM»</text><text fill="#000000" font-family="sans-serif" font-size="14" lengthAdjust="spacingAndGlyphs" textLength="31" x="85.541" y="715.1426">timer</text><!--entity parser--><rect fill="#FEFECE" filter="url(#fgf8yf5a3qf57)" height="55.2188" style="stroke: #A80036; stroke-width: 1.5;" width="66" x="773.041" y="806"/><rect fill="#FEFECE" height="5" style="stroke: #A80036; stroke-width: 1.5;" width="10" x="768.041" y="811"/><rect fill="#FEFECE" height="5" style="stroke: #A80036; stroke-width: 1.5;" width="10" x="768.041" y="851.2188"/><text fill="#000000" font-family="sans-serif" font-size="14" font-style="italic" lengthAdjust="spacingAndGlyphs" textLength="46" x="783.041" y="830.5332">«PSM»</text><text fill="#000000" font-family="sans-serif" font-size="14" lengthAdjust="spacingAndGlyphs" textLength="41" x="785.541" y="848.1426">parser</text><!--entity control--><rect fill="#FEFECE" filter="url(#fgf8yf5a3qf57)" height="55.2188" style="stroke: #A80036; stroke-width: 1.5;" width="66" x="213.041" y="806"/><rect fill="#FEFECE" height="5" style="stroke: #A80036; stroke-width: 1.5;" width="10" x="208.041" y="811"/><rect fill="#FEFECE" height="5" style="stroke: #A80036; stroke-width: 1.5;" width="10" x="208.041" y="851.2188"/><text fill="#000000" font-family="sans-serif" font-size="14" font-style="italic" lengthAdjust="spacingAndGlyphs" textLength="46" x="223.041" y="830.5332">«PSM»</text><text fill="#000000" font-family="sans-serif" font-size="14" lengthAdjust="spacingAndGlyphs" textLength="43" x="224.541" y="848.1426">control</text><!--entity observation--><rect fill="#FEFECE" filter="url(#fgf8yf5a3qf57)" height="55.2188" style="stroke: #A80036; stroke-width: 1.5;" width="94" x="388.041" y="806"/><rect fill="#FEFECE" height="5" style="stroke: #A80036; stroke-width: 1.5;" width="10" x="383.041" y="811"/><rect fill="#FEFECE" height="5" style="stroke: #A80036; stroke-width: 1.5;" width="10" x="383.041" y="851.2188"/><text fill="#000000" font-family="sans-serif" font-size="14" font-style="italic" lengthAdjust="spacingAndGlyphs" textLength="46" x="412.041" y="830.5332">«PSM»</text><text fill="#000000" font-family="sans-serif" font-size="14" lengthAdjust="spacingAndGlyphs" textLength="74" x="398.041" y="848.1426">observation</text><!--entity distanceController--><rect fill="#FEFECE" filter="url(#fgf8yf5a3qf57)" height="55.2188" style="stroke: #A80036; stroke-width: 1.5;" width="135" x="658.541" y="8"/><rect fill="#FEFECE" height="5" style="stroke: #A80036; stroke-width: 1.5;" width="10" x="653.541" y="13"/><rect fill="#FEFECE" height="5" style="stroke: #A80036; stroke-width: 1.5;" width="10" x="653.541" y="53.2188"/><text fill="#000000" font-family="sans-serif" font-size="14" font-style="italic" lengthAdjust="spacingAndGlyphs" textLength="46" x="703.041" y="32.5332">«PSM»</text><text fill="#000000" font-family="sans-serif" font-size="14" lengthAdjust="spacingAndGlyphs" textLength="115" x="668.541" y="50.1426">distanceController</text><!--entity roverestimator--><rect fill="#FEFECE" filter="url(#fgf8yf5a3qf57)" height="55.2188" style="stroke: #A80036; stroke-width: 1.5;" width="111" x="129.541" y="540"/><rect fill="#FEFECE" height="5" style="stroke: #A80036; stroke-width: 1.5;" width="10" x="124.541" y="545"/><rect fill="#FEFECE" height="5" style="stroke: #A80036; stroke-width: 1.5;" width="10" x="124.541" y="585.2188"/><text fill="#000000" font-family="sans-serif" font-size="14" font-style="italic" lengthAdjust="spacingAndGlyphs" textLength="41" x="164.541" y="564.5332">«PIM»</text><text fill="#000000" font-family="sans-serif" font-size="14" lengthAdjust="spacingAndGlyphs" textLength="91" x="139.541" y="582.1426">roverestimator</text><!--entity leaderestimator--><rect fill="#FEFECE" filter="url(#fgf8yf5a3qf57)" height="55.2188" style="stroke: #A80036; stroke-width: 1.5;" width="118" x="336.041" y="540"/><rect fill="#FEFECE" height="5" style="stroke: #A80036; stroke-width: 1.5;" width="10" x="331.041" y="545"/><rect fill="#FEFECE" height="5" style="stroke: #A80036; stroke-width: 1.5;" width="10" x="331.041" y="585.2188"/><text fill="#000000" font-family="sans-serif" font-size="14" font-style="italic" lengthAdjust="spacingAndGlyphs" textLength="41" x="374.541" y="564.5332">«PIM»</text><text fill="#000000" font-family="sans-serif" font-size="14" lengthAdjust="spacingAndGlyphs" textLength="98" x="346.041" y="582.1426">leaderestimator</text><!--entity communicator--><rect fill="#FEFECE" filter="url(#fgf8yf5a3qf57)" height="55.2188" style="stroke: #A80036; stroke-width: 1.5;" width="108" x="372.041" y="673"/><rect fill="#FEFECE" height="5" style="stroke: #A80036; stroke-width: 1.5;" width="10" x="367.041" y="678"/><rect fill="#FEFECE" height="5" style="stroke: #A80036; stroke-width: 1.5;" width="10" x="367.041" y="718.2188"/><text fill="#000000" font-family="sans-serif" font-size="14" font-style="italic" lengthAdjust="spacingAndGlyphs" textLength="46" x="403.041" y="697.5332">«PSM»</text><text fill="#000000" font-family="sans-serif" font-size="14" lengthAdjust="spacingAndGlyphs" textLength="88" x="382.041" y="715.1426">communicator</text><!--entity speedController--><rect fill="#FEFECE" filter="url(#fgf8yf5a3qf57)" height="55.2188" style="stroke: #A80036; stroke-width: 1.5;" width="121" x="587.541" y="274"/><rect fill="#FEFECE" height="5" style="stroke: #A80036; stroke-width: 1.5;" width="10" x="582.541" y="279"/><rect fill="#FEFECE" height="5" style="stroke: #A80036; stroke-width: 1.5;" width="10" x="582.541" y="319.2188"/><text fill="#000000" font-family="sans-serif" font-size="14" font-style="italic" lengthAdjust="spacingAndGlyphs" textLength="46" x="625.041" y="298.5332">«PSM»</text><text fill="#000000" font-family="sans-serif" font-size="14" lengthAdjust="spacingAndGlyphs" textLength="101" x="597.541" y="316.1426">speedController</text><!--entity headingController--><rect fill="#FEFECE" filter="url(#fgf8yf5a3qf57)" height="55.2188" style="stroke: #A80036; stroke-width: 1.5;" width="133" x="581.541" y="141"/><rect fill="#FEFECE" height="5" style="stroke: #A80036; stroke-width: 1.5;" width="10" x="576.541" y="146"/><rect fill="#FEFECE" height="5" style="stroke: #A80036; stroke-width: 1.5;" width="10" x="576.541" y="186.2188"/><text fill="#000000" font-family="sans-serif" font-size="14" font-style="italic" lengthAdjust="spacingAndGlyphs" textLength="46" x="625.041" y="165.5332">«PSM»</text><text fill="#000000" font-family="sans-serif" font-size="14" lengthAdjust="spacingAndGlyphs" textLength="113" x="591.541" y="183.1426">headingController</text><!--entity parameterestimator--><rect fill="#FEFECE" filter="url(#fgf8yf5a3qf57)" height="55.2188" style="stroke: #A80036; stroke-width: 1.5;" width="143" x="252.541" y="407"/><rect fill="#FEFECE" height="5" style="stroke: #A80036; stroke-width: 1.5;" width="10" x="247.541" y="412"/><rect fill="#FEFECE" height="5" style="stroke: #A80036; stroke-width: 1.5;" width="10" x="247.541" y="452.2188"/><text fill="#000000" font-family="sans-serif" font-size="14" font-style="italic" lengthAdjust="spacingAndGlyphs" textLength="46" x="301.041" y="431.5332">«PSM»</text><text fill="#000000" font-family="sans-serif" font-size="14" lengthAdjust="spacingAndGlyphs" textLength="123" x="262.541" y="449.1426">parameterestimator</text><!--entity muxer--><rect fill="#FEFECE" filter="url(#fgf8yf5a3qf57)" height="55.2188" style="stroke: #A80036; stroke-width: 1.5;" width="66" x="660.041" y="540"/><rect fill="#FEFECE" height="5" style="stroke: #A80036; stroke-width: 1.5;" width="10" x="655.041" y="545"/><rect fill="#FEFECE" height="5" style="stroke: #A80036; stroke-width: 1.5;" width="10" x="655.041" y="585.2188"/><text fill="#000000" font-family="sans-serif" font-size="14" font-style="italic" lengthAdjust="spacingAndGlyphs" textLength="46" x="670.041" y="564.5332">«PSM»</text><text fill="#000000" font-family="sans-serif" font-size="14" lengthAdjust="spacingAndGlyphs" textLength="38" x="674.041" y="582.1426">muxer</text><!--link distanceController to parser--><path d="M793.73,43.969 C865.632,56.101 969.041,87.461 969.041,167.5 C969.041,167.5 969.041,167.5 969.041,701.5 C969.041,767.3937 887.108,805.7005 839.42,822.4157 " fill="none" id="distanceController-parser" style="stroke: #A80036; stroke-width: 1.0;"/><text fill="#000000" font-family="sans-serif" font-size="13" lengthAdjust="spacingAndGlyphs" textLength="108" x="970.041" y="439.9951">Loaded =&gt; Loaded</text><path d="M976.1121,227.1789 A10,10 0 0 0 961.9699 227.1789" fill="#FFFFFF" style="stroke: #A80036; stroke-width: 1.5;"/><ellipse cx="969.041" cy="234.25" fill="#FFFFFF" rx="6" ry="6" style="stroke: #A80036; stroke-width: 1.5;"/><!--link communicator to observation--><path d="M427.862,728.01 C429.413,750.588 431.632,782.8849 433.192,805.58 " fill="none" id="communicator-observation" style="stroke: #A80036; stroke-width: 1.0;"/><text fill="#000000" font-family="sans-serif" font-size="13" lengthAdjust="spacingAndGlyphs" textLength="174" x="433.041" y="772.4951">ObservationSocket =&gt; Socket</text><path d="M437.0933,759.2119 A10,10 0 0 0 422.9845 760.1814" fill="#FFFFFF" style="stroke: #A80036; stroke-width: 1.5;"/><ellipse cx="430.5236" cy="766.7511" fill="#FFFFFF" rx="6" ry="6" style="stroke: #A80036; stroke-width: 1.5;"/><!--link muxer to communicator--><path d="M685.259,595.263 C679.242,611.368 669.312,631.008 654.041,643 C604.008,682.292 530.287,694.678 480.328,698.358 " fill="none" id="muxer-communicator" style="stroke: #A80036; stroke-width: 1.0;"/><text fill="#000000" font-family="sans-serif" font-size="13" lengthAdjust="spacingAndGlyphs" textLength="88" x="671.041" y="639.4951">Rover =&gt; Rover</text><path d="M575.8441,688.9863 A10,10 0 0 0 572.1096 675.3462" fill="#FFFFFF" style="stroke: #A80036; stroke-width: 1.5;"/><ellipse cx="567.1568" cy="684.0335" fill="#FFFFFF" rx="6" ry="6" style="stroke: #A80036; stroke-width: 1.5;"/><!--link headingController to parameterestimator--><path d="M581.372,191.294 C535.753,208.567 475.837,236.12 432.041,274 C387.904,312.175 353.758,372.416 336.49,406.903 " fill="none" id="headingController-parameterestimator" style="stroke: #A80036; stroke-width: 1.0;"/><text fill="#000000" font-family="sans-serif" font-size="13" lengthAdjust="spacingAndGlyphs" textLength="136" x="433.041" y="306.9951">Estimator =&gt; Estimator</text><path d="M442.0149,274.7224 A10,10 0 0 0 432.7634 264.0261" fill="#FFFFFF" style="stroke: #A80036; stroke-width: 1.5;"/><ellipse cx="432.041" cy="274" fill="#FFFFFF" rx="6" ry="6" style="stroke: #A80036; stroke-width: 1.5;"/><!--link speedController to muxer--><path d="M652.603,329.267 C661.228,379.866 679.832,489.008 688.466,539.663 " fill="none" id="speedController-muxer" style="stroke: #A80036; stroke-width: 1.0;"/><text fill="#000000" font-family="sans-serif" font-size="13" lengthAdjust="spacingAndGlyphs" textLength="55" x="676.041" y="439.9951">In =&gt; Out</text><path d="M676.3135,426.2853 A10,10 0 0 0 662.3724 428.6616" fill="#FFFFFF" style="stroke: #A80036; stroke-width: 1.5;"/><ellipse cx="670.5311" cy="434.444" fill="#FFFFFF" rx="6" ry="6" style="stroke: #A80036; stroke-width: 1.5;"/><!--link leaderestimator to communicator--><path d="M401.314,595.01 C406.657,617.588 414.3,649.885 419.671,672.58 " fill="none" id="leaderestimator-communicator" style="stroke: #A80036; stroke-width: 1.0;"/><text fill="#000000" font-family="sans-serif" font-size="13" lengthAdjust="spacingAndGlyphs" textLength="102" x="414.041" y="639.4951">Leader =&gt; Leader</text><path d="M415.7346,625.2417 A10,10 0 0 0 401.9726 628.4985" fill="#FFFFFF" style="stroke: #A80036; stroke-width: 1.5;"/><ellipse cx="410.482" cy="633.7511" fill="#FFFFFF" rx="6" ry="6" style="stroke: #A80036; stroke-width: 1.5;"/><!--link leaderestimator to timer--><path d="M335.737,576.922 C292.108,584.866 232.405,599.482 185.041,625 C162.218,637.297 140.436,656.925 124.775,672.947 " fill="none" id="leaderestimator-timer" style="stroke: #A80036; stroke-width: 1.0;"/><text fill="#000000" font-family="sans-serif" font-size="13" lengthAdjust="spacingAndGlyphs" textLength="85" x="186.041" y="639.4951">Timer =&gt; timer</text><path d="M270.5855,599.1281 A10,10 0 0 0 266.547 585.5749" fill="#FFFFFF" style="stroke: #A80036; stroke-width: 1.5;"/><ellipse cx="261.7896" cy="594.3708" fill="#FFFFFF" rx="6" ry="6" style="stroke: #A80036; stroke-width: 1.5;"/><!--link communicator to control--><path d="M372.04,709.682 C339.547,717.19 299.49,731.39 273.041,758 C260.336,770.782 253.564,789.9907 249.979,805.7017 " fill="none" id="communicator-control" style="stroke: #A80036; stroke-width: 1.0;"/><text fill="#000000" font-family="sans-serif" font-size="13" lengthAdjust="spacingAndGlyphs" textLength="147" x="274.041" y="772.4951">ControlSocket =&gt; Socket</text><path d="M329.6228,730.2275 A10,10 0 0 0 323.8237 717.329" fill="#FFFFFF" style="stroke: #A80036; stroke-width: 1.5;"/><ellipse cx="320.274" cy="726.6778" fill="#FFFFFF" rx="6" ry="6" style="stroke: #A80036; stroke-width: 1.5;"/><!--link parameterestimator to timer--><path d="M252.265,438.451 C181.637,445.609 77.05,468.525 25.041,540 C-1.8986,577.022 2.2252,602.219 23.041,643 C32.4673,661.467 51.0621,675.301 67.7319,684.656 " fill="none" id="parameterestimator-timer" style="stroke: #A80036; stroke-width: 1.0;"/><text fill="#000000" font-family="sans-serif" font-size="13" lengthAdjust="spacingAndGlyphs" textLength="85" x="26.041" y="572.9951">Timer =&gt; timer</text><path d="M140.7749,469.2438 A10,10 0 0 0 135.808 456.0026" fill="#FFFFFF" style="stroke: #A80036; stroke-width: 1.5;"/><ellipse cx="131.6709" cy="465.1066" fill="#FFFFFF" rx="6" ry="6" style="stroke: #A80036; stroke-width: 1.5;"/><!--link speedController to parameterestimator--><path d="M587.375,323.786 C558.887,334.029 524.559,346.728 494.041,359 C456.52,374.088 414.931,392.287 382.28,406.921 " fill="none" id="speedController-parameterestimator" style="stroke: #A80036; stroke-width: 1.0;"/><text fill="#000000" font-family="sans-serif" font-size="13" lengthAdjust="spacingAndGlyphs" textLength="136" x="495.041" y="373.4951">Estimator =&gt; Estimator</text><path d="M503.2396,362.9224 A10,10 0 0 0 497.9634 349.8014" fill="#FFFFFF" style="stroke: #A80036; stroke-width: 1.5;"/><ellipse cx="494.041" cy="359" fill="#FFFFFF" rx="6" ry="6" style="stroke: #A80036; stroke-width: 1.5;"/><!--link distanceController to headingController--><path d="M710.257,63.01 C696.813,85.588 677.583,117.885 664.07,140.58 " fill="none" id="distanceController-headingController" style="stroke: #A80036; stroke-width: 1.0;"/><text fill="#000000" font-family="sans-serif" font-size="13" lengthAdjust="spacingAndGlyphs" textLength="55" x="693.041" y="107.4951">In =&gt; Out</text><path d="M696.8826,99.293 A10,10 0 0 0 684.7313 92.0579" fill="#FFFFFF" style="stroke: #A80036; stroke-width: 1.5;"/><ellipse cx="687.1894" cy="101.7511" fill="#FFFFFF" rx="6" ry="6" style="stroke: #A80036; stroke-width: 1.5;"/><!--link parameterestimator to leaderestimator--><path d="M339.362,462.128 C344.707,471.529 350.702,482.199 356.041,492 C364.631,507.769 373.97,525.583 381.355,539.837 " fill="none" id="parameterestimator-leaderestimator" style="stroke: #A80036; stroke-width: 1.0;"/><text fill="#000000" font-family="sans-serif" font-size="13" lengthAdjust="spacingAndGlyphs" textLength="175" x="366.041" y="506.4951">LeaderEstimator =&gt; Estimator</text><path d="M358.8679,482.4079 A10,10 0 0 0 346.4489 489.1731" fill="#FFFFFF" style="stroke: #A80036; stroke-width: 1.5;"/><ellipse cx="356.041" cy="492" fill="#FFFFFF" rx="6" ry="6" style="stroke: #A80036; stroke-width: 1.5;"/><!--link headingController to speedController--><path d="M648.041,196.01 C648.041,218.588 648.041,250.885 648.041,273.58 " fill="none" id="headingController-speedController" style="stroke: #A80036; stroke-width: 1.0;"/><text fill="#000000" font-family="sans-serif" font-size="13" lengthAdjust="spacingAndGlyphs" textLength="55" x="649.041" y="240.4951">In =&gt; Out</text><path d="M655.1121,227.6801 A10,10 0 0 0 640.9699 227.6801" fill="#FFFFFF" style="stroke: #A80036; stroke-width: 1.5;"/><ellipse cx="648.041" cy="234.7511" fill="#FFFFFF" rx="6" ry="6" style="stroke: #A80036; stroke-width: 1.5;"/><!--link muxer to distanceController--><path d="M724.089,539.681 C748.723,515.282 779.041,476.853 779.041,435.5 C779.041,167.5 779.041,167.5 779.041,167.5 C779.041,129.227 759.36,88.954 743.984,63.331 " fill="none" id="muxer-distanceController" style="stroke: #A80036; stroke-width: 1.0;"/><text fill="#000000" font-family="sans-serif" font-size="13" lengthAdjust="spacingAndGlyphs" textLength="55" x="780.041" y="306.9951">In =&gt; Out</text><path d="M771.9699,208.0711 A10,10 0 0 0 786.1121 208.0711" fill="#FFFFFF" style="stroke: #A80036; stroke-width: 1.5;"/><ellipse cx="779.041" cy="201" fill="#FFFFFF" rx="6" ry="6" style="stroke: #A80036; stroke-width: 1.5;"/><!--link roverestimator to communicator--><path d="M228.011,595.023 C252.151,609.64 282.981,627.841 311.041,643 C330.612,653.573 352.441,664.507 371.777,673.907 " fill="none" id="roverestimator-communicator" style="stroke: #A80036; stroke-width: 1.0;"/><text fill="#000000" font-family="sans-serif" font-size="13" lengthAdjust="spacingAndGlyphs" textLength="88" x="312.041" y="639.4951">Rover =&gt; Rover</text><path d="M308.1807,633.4178 A10,10 0 0 0 301.4588 645.8603" fill="#FFFFFF" style="stroke: #A80036; stroke-width: 1.5;"/><ellipse cx="311.041" cy="643" fill="#FFFFFF" rx="6" ry="6" style="stroke: #A80036; stroke-width: 1.5;"/><!--link communicator to parser--><path d="M480.069,716.25 C518.305,727.008 570.645,742.382 616.041,758 C671.657,777.1346 735.036,802.7791 772.725,818.4455 " fill="none" id="communicator-parser" style="stroke: #A80036; stroke-width: 1.0;"/><text fill="#000000" font-family="sans-serif" font-size="13" lengthAdjust="spacingAndGlyphs" textLength="108" x="665.041" y="772.4951">Loaded =&gt; Loaded</text><path d="M611.655,749.0132 A10,10 0 0 0 607.0542 762.386" fill="#FFFFFF" style="stroke: #A80036; stroke-width: 1.5;"/><ellipse cx="616.041" cy="758" fill="#FFFFFF" rx="6" ry="6" style="stroke: #A80036; stroke-width: 1.5;"/><!--link parameterestimator to roverestimator--><path d="M252.235,445.605 C224.274,453.438 194.941,467.338 178.041,492 C168.568,505.824 170.419,524.633 174.588,539.893 " fill="none" id="parameterestimator-roverestimator" style="stroke: #A80036; stroke-width: 1.0;"/><text fill="#000000" font-family="sans-serif" font-size="13" lengthAdjust="spacingAndGlyphs" textLength="168" x="179.041" y="506.4951">RoverEstimator =&gt; Estimator</text><path d="M220.6591,465.0432 A10,10 0 0 0 213.5417 452.8226" fill="#FFFFFF" style="stroke: #A80036; stroke-width: 1.5;"/><ellipse cx="210.9901" cy="462.4916" fill="#FFFFFF" rx="6" ry="6" style="stroke: #A80036; stroke-width: 1.5;"/><!--link muxer to parser--><path d="M726.116,585.785 C741.21,595.349 757.935,608.632 768.041,625 C803.348,682.182 807.563,764.0014 807.119,805.7581 " fill="none" id="muxer-parser" style="stroke: #A80036; stroke-width: 1.0;"/><text fill="#000000" font-family="sans-serif" font-size="13" lengthAdjust="spacingAndGlyphs" textLength="108" x="803.041" y="705.9951">Loaded =&gt; Loaded</text><path d="M806.8132,713.0363 A10,10 0 0 0 792.8594 715.337" fill="#FFFFFF" style="stroke: #A80036; stroke-width: 1.5;"/><ellipse cx="800.9866" cy="721.1635" fill="#FFFFFF" rx="6" ry="6" style="stroke: #A80036; stroke-width: 1.5;"/><!--link distanceController to parameterestimator--><path d="M658.426,46.494 C565.354,64.265 400.912,110.986 327.041,226 C291.216,281.778 305.34,364.57 316.118,406.728 " fill="none" id="distanceController-parameterestimator" style="stroke: #A80036; stroke-width: 1.0;"/><text fill="#000000" font-family="sans-serif" font-size="13" lengthAdjust="spacingAndGlyphs" textLength="136" x="328.041" y="240.4951">Estimator =&gt; Estimator</text><path d="M494.9014,103.2788 A10,10 0 0 0 489.031 90.4126" fill="#FFFFFF" style="stroke: #A80036; stroke-width: 1.5;"/><ellipse cx="485.5331" cy="99.7809" fill="#FFFFFF" rx="6" ry="6" style="stroke: #A80036; stroke-width: 1.5;"/><!--link roverestimator to timer--><path d="M129.383,582.355 C91.5219,593.036 46.3226,608.695 35.041,625 C20.4897,646.03 44.8224,667.644 67.943,682.138 " fill="none" id="roverestimator-timer" style="stroke: #A80036; stroke-width: 1.0;"/><text fill="#000000" font-family="sans-serif" font-size="13" lengthAdjust="spacingAndGlyphs" textLength="85" x="36.041" y="639.4951">Timer =&gt; timer</text><path d="M81.4952,605.3669 A10,10 0 0 0 76.0431 592.318" fill="#FFFFFF" style="stroke: #A80036; stroke-width: 1.5;"/><ellipse cx="72.2447" cy="601.5685" fill="#FFFFFF" rx="6" ry="6" style="stroke: #A80036; stroke-width: 1.5;"/><!--link muxer to timer--><path d="M659.918,581.52 C632.579,592.492 592.915,608.93 559.041,625 C543.593,632.329 541.326,637.789 525.041,643 C487.997,654.854 227.626,685.145 134.26,695.758 " fill="none" id="muxer-timer" style="stroke: #A80036; stroke-width: 1.0;"/><text fill="#000000" font-family="sans-serif" font-size="13" lengthAdjust="spacingAndGlyphs" textLength="85" x="560.041" y="639.4951">Timer =&gt; timer</text><path d="M358.6801,675.964 A10,10 0 0 0 356.8909 661.9355" fill="#FFFFFF" style="stroke: #A80036; stroke-width: 1.5;"/><ellipse cx="350.7713" cy="669.8444" fill="#FFFFFF" rx="6" ry="6" style="stroke: #A80036; stroke-width: 1.5;"/><text fill="#000000" font-family="sans-serif" font-size="14" lengthAdjust="spacingAndGlyphs" textLength="399" x="349" y="885.5332">Instances and Connectors in configuration RoverControllerJava</text><!--
@startuml
caption Instances and Connectors in configuration RoverControllerJava
component timer<<PSM>>
component parser<<PSM>>
component control<<PSM>>
component observation<<PSM>>
component distanceController<<PSM>>
component roverestimator<<PIM>>
component leaderestimator<<PIM>>
component communicator<<PSM>>
component speedController<<PSM>>
component headingController<<PSM>>
component parameterestimator<<PSM>>
component muxer<<PSM>>
distanceController -(0- parser : Loaded => Loaded
communicator -(0- observation : ObservationSocket => Socket
muxer -(0- communicator : Rover => Rover
headingController -(0- parameterestimator : Estimator => Estimator
speedController -(0- muxer : In => Out
leaderestimator -(0- communicator : Leader => Leader
leaderestimator -(0- timer : Timer => timer
communicator -(0- control : ControlSocket => Socket
parameterestimator -(0- timer : Timer => timer
speedController -(0- parameterestimator : Estimator => Estimator
distanceController -(0- headingController : In => Out
parameterestimator -(0- leaderestimator : LeaderEstimator => Estimator
headingController -(0- speedController : In => Out
muxer -(0- distanceController : In => Out
roverestimator -(0- communicator : Rover => Rover
communicator -(0- parser : Loaded => Loaded
parameterestimator -(0- roverestimator : RoverEstimator => Estimator
muxer -(0- parser : Loaded => Loaded
distanceController -(0- parameterestimator : Estimator => Estimator
roverestimator -(0- timer : Timer => timer
muxer -(0- timer : Timer => timer
@enduml

PlantUML version 1.2017.15(Mon Jul 03 18:45:34 CEST 2017)
(GPL source distribution)
Java Runtime: Java(TM) SE Runtime Environment
JVM: Java HotSpot(TM) 64-Bit Server VM
Java Version: 1.8.0_151-b12
Operating System: Windows 10
OS Version: 10.0
Default Encoding: Cp1252
Language: en
Country: GB
--></g></svg>