<?xml version="1.0" encoding="UTF-8" standalone="no"?><svg xmlns="http://www.w3.org/2000/svg" xmlns:xlink="http://www.w3.org/1999/xlink" contentScriptType="application/ecmascript" contentStyleType="text/css" height="1352px" preserveAspectRatio="none" style="width:731px;height:1352px;" version="1.1" viewBox="0 0 731 1352" width="731px" zoomAndPan="magnify"><defs><filter height="300%" id="fdytbvoulv61g" width="300%" x="-1" y="-1"><feGaussianBlur result="blurOut" stdDeviation="2.0"/><feColorMatrix in="blurOut" result="blurOut2" type="matrix" values="0 0 0 0 0 0 0 0 0 0 0 0 0 0 0 0 0 0 .4 0"/><feOffset dx="4.0" dy="4.0" in="blurOut2" result="blurOut3"/><feBlend in="SourceGraphic" in2="blurOut3" mode="normal"/></filter></defs><g><ellipse cx="362.5" cy="18" fill="#000000" filter="url(#fdytbvoulv61g)" rx="10" ry="10" style="stroke: none; stroke-width: 1.0;"/><rect fill="#FEFECE" filter="url(#fdytbvoulv61g)" height="1225.6094" rx="12.5" ry="12.5" style="stroke: #A80036; stroke-width: 1.5;" width="713" x="6" y="88"/><rect fill="#FFFFFF" height="1192" rx="12.5" ry="12.5" style="stroke: #FFFFFF; stroke-width: 1.0;" width="707" x="9" y="118.6094"/><line style="stroke: #A80036; stroke-width: 1.5;" x1="6" x2="719" y1="115.6094" y2="115.6094"/><text fill="#000000" font-family="sans-serif" font-size="14" lengthAdjust="spacingAndGlyphs" textLength="59" x="333" y="107.5332">Estimator</text><ellipse cx="351.5" cy="138.6094" fill="#000000" filter="url(#fdytbvoulv61g)" rx="10" ry="10" style="stroke: none; stroke-width: 1.0;"/><rect fill="#FEFECE" filter="url(#fdytbvoulv61g)" height="50" rx="12.5" ry="12.5" style="stroke: #A80036; stroke-width: 1.5;" width="132" x="285.5" y="185.6094"/><line style="stroke: #A80036; stroke-width: 1.5;" x1="285.5" x2="417.5" y1="213.2188" y2="213.2188"/><text fill="#000000" font-family="sans-serif" font-size="14" lengthAdjust="spacingAndGlyphs" textLength="112" x="295.5" y="205.1426">WaitForStarted_3</text><rect fill="#FEFECE" filter="url(#fdytbvoulv61g)" height="493.7969" rx="12.5" ry="12.5" style="stroke: #A80036; stroke-width: 1.5;" width="669" x="17" y="289.6094"/><rect fill="#FFFFFF" height="425" rx="12.5" ry="12.5" style="stroke: #FFFFFF; stroke-width: 1.0;" width="663" x="20" y="355.4063"/><line style="stroke: #A80036; stroke-width: 1.5;" x1="17" x2="686" y1="352.4063" y2="352.4063"/><line style="stroke: #A80036; stroke-width: 1.5;" x1="17" x2="686" y1="317.2188" y2="317.2188"/><text fill="#000000" font-family="sans-serif" font-size="14" lengthAdjust="spacingAndGlyphs" textLength="77" x="313" y="309.1426">Bootstrap_2</text><text fill="#000000" font-family="sans-serif" font-size="12" lengthAdjust="spacingAndGlyphs" textLength="256" x="22" y="329.6758">entry / println "Bootstrapping Rover estimator..."</text><text fill="#000000" font-family="sans-serif" font-size="12" lengthAdjust="spacingAndGlyphs" textLength="0" x="25" y="344.7695"/><ellipse cx="219" cy="375.4063" fill="#000000" filter="url(#fdytbvoulv61g)" rx="10" ry="10" style="stroke: none; stroke-width: 1.0;"/><rect fill="#FEFECE" filter="url(#fdytbvoulv61g)" height="67.7969" rx="12.5" ry="12.5" style="stroke: #A80036; stroke-width: 1.5;" width="194" x="122" y="422.4063"/><line style="stroke: #A80036; stroke-width: 1.5;" x1="122" x2="316" y1="450.0156" y2="450.0156"/><text fill="#000000" font-family="sans-serif" font-size="14" lengthAdjust="spacingAndGlyphs" textLength="89" x="174.5" y="441.9395">GetPosition_4</text><text fill="#000000" font-family="sans-serif" font-size="12" lengthAdjust="spacingAndGlyphs" textLength="174" x="127" y="467.4727">entry / Rover!GetRoverPosition()</text><text fill="#000000" font-family="sans-serif" font-size="12" lengthAdjust="spacingAndGlyphs" textLength="0" x="130" y="482.5664"/><rect fill="#FEFECE" filter="url(#fdytbvoulv61g)" height="67.7969" rx="12.5" ry="12.5" style="stroke: #A80036; stroke-width: 1.5;" width="204" x="28" y="560.4063"/><line style="stroke: #A80036; stroke-width: 1.5;" x1="28" x2="232" y1="588.0156" y2="588.0156"/><text fill="#000000" font-family="sans-serif" font-size="14" lengthAdjust="spacingAndGlyphs" textLength="98" x="81" y="579.9395">GetCompass_2</text><text fill="#000000" font-family="sans-serif" font-size="12" lengthAdjust="spacingAndGlyphs" textLength="184" x="33" y="605.4727">entry / Rover!GetRoverCompass()</text><text fill="#000000" font-family="sans-serif" font-size="12" lengthAdjust="spacingAndGlyphs" textLength="0" x="36" y="620.5664"/><rect fill="#FEFECE" filter="url(#fdytbvoulv61g)" height="52.7031" rx="12.5" ry="12.5" style="stroke: #A80036; stroke-width: 1.5;" width="99" x="164.5" y="715.4063"/><line style="stroke: #A80036; stroke-width: 1.5;" x1="164.5" x2="263.5" y1="743.0156" y2="743.0156"/><text fill="#000000" font-family="sans-serif" font-size="14" lengthAdjust="spacingAndGlyphs" textLength="44" x="192" y="734.9395">Wait_2</text><text fill="#000000" font-family="sans-serif" font-size="12" lengthAdjust="spacingAndGlyphs" textLength="79" x="169.5" y="760.4727">entry / do...end</text><!--link GetPosition_4 to GetCompass_2--><path d="M160.557,490.5793 C154.609,495.8973 149.217,501.8423 145,508.4063 C136.195,522.1123 132.164,539.5052 130.439,554.9833 " fill="none" id="GetPosition_4-GetCompass_2" style="stroke: #A80036; stroke-width: 1.0;"/><polygon fill="#A80036" points="129.939,560.1503,134.7872,551.5773,130.4205,555.1735,126.8243,550.8069,129.939,560.1503" style="stroke: #A80036; stroke-width: 1.0;"/><text fill="#000000" font-family="sans-serif" font-size="13" lengthAdjust="spacingAndGlyphs" textLength="143" x="146" y="522.9014">pos:Rover?RoverPosition</text><text fill="#000000" font-family="sans-serif" font-size="13" lengthAdjust="spacingAndGlyphs" textLength="86" x="146" y="539.2529">action do...end</text><!--link GetCompass_2 to Wait_2--><path d="M119.703,628.6063 C115.1785,649.8293 113.3758,677.0835 126,697.4063 C133.837,710.0224 146.536,719.0902 159.879,725.5632 " fill="none" id="GetCompass_2-Wait_2" style="stroke: #A80036; stroke-width: 1.0;"/><polygon fill="#A80036" points="164.423,727.6603,157.9282,720.2563,159.8834,725.5646,154.5751,727.5197,164.423,727.6603" style="stroke: #A80036; stroke-width: 1.0;"/><text fill="#000000" font-family="sans-serif" font-size="13" lengthAdjust="spacingAndGlyphs" textLength="162" x="127" y="660.9014">comp:Rover?RoverCompass</text><text fill="#000000" font-family="sans-serif" font-size="13" lengthAdjust="spacingAndGlyphs" textLength="114" x="127" y="677.2529">action PushItem(...)</text><text fill="#000000" font-family="sans-serif" font-size="13" lengthAdjust="spacingAndGlyphs" textLength="0" x="131" y="693.6045"/><!--link Wait_2 to GetPosition_4--><path d="M263.722,722.4145 C274.189,716.1213 283.899,707.9278 290,697.4063 C332.136,624.7393 328.337,583.1473 290,508.4063 C287.401,503.3403 284.04,498.6633 280.194,494.3713 " fill="none" id="Wait_2-GetPosition_4" style="stroke: #A80036; stroke-width: 1.0;"/><polygon fill="#A80036" points="276.535,490.5373,279.8541,499.81,279.9867,494.1547,285.642,494.2873,276.535,490.5373" style="stroke: #A80036; stroke-width: 1.0;"/><text fill="#000000" font-family="sans-serif" font-size="13" lengthAdjust="spacingAndGlyphs" textLength="326" x="321" y="599.9014">t:Timer?timer_timeout[(t.id == 1 and SamplesRead &lt; N)]</text><!--link *start*Bootstrap_2 to GetPosition_4--><path d="M219,385.4683 C219,393.3413 219,405.3073 219,417.1273 " fill="none" id="*start*Bootstrap_2-GetPosition_4" style="stroke: #A80036; stroke-width: 1.0;"/><polygon fill="#A80036" points="219,422.1713,223,413.1713,219,417.1713,215,413.1713,219,422.1713" style="stroke: #A80036; stroke-width: 1.0;"/><rect fill="#FEFECE" filter="url(#fdytbvoulv61g)" height="460.7969" rx="12.5" ry="12.5" style="stroke: #A80036; stroke-width: 1.5;" width="517" x="93" y="837.6094"/><rect fill="#FFFFFF" height="392" rx="12.5" ry="12.5" style="stroke: #FFFFFF; stroke-width: 1.0;" width="511" x="96" y="903.4063"/><line style="stroke: #A80036; stroke-width: 1.5;" x1="93" x2="610" y1="900.4063" y2="900.4063"/><line style="stroke: #A80036; stroke-width: 1.5;" x1="93" x2="610" y1="865.2188" y2="865.2188"/><text fill="#000000" font-family="sans-serif" font-size="14" lengthAdjust="spacingAndGlyphs" textLength="70" x="316.5" y="857.1426">Estimate_3</text><text fill="#000000" font-family="sans-serif" font-size="12" lengthAdjust="spacingAndGlyphs" textLength="213" x="98" y="877.6758">entry / println "Estimating Rover state..."</text><text fill="#000000" font-family="sans-serif" font-size="12" lengthAdjust="spacingAndGlyphs" textLength="0" x="101" y="892.7695"/><ellipse cx="293" cy="923.4063" fill="#000000" filter="url(#fdytbvoulv61g)" rx="10" ry="10" style="stroke: none; stroke-width: 1.0;"/><rect fill="#FEFECE" filter="url(#fdytbvoulv61g)" height="52.7031" rx="12.5" ry="12.5" style="stroke: #A80036; stroke-width: 1.5;" width="143" x="221.5" y="970.4063"/><line style="stroke: #A80036; stroke-width: 1.5;" x1="221.5" x2="364.5" y1="998.0156" y2="998.0156"/><text fill="#000000" font-family="sans-serif" font-size="14" lengthAdjust="spacingAndGlyphs" textLength="123" x="231.5" y="989.9395">FiniteDifferences_2</text><text fill="#000000" font-family="sans-serif" font-size="12" lengthAdjust="spacingAndGlyphs" textLength="79" x="226.5" y="1015.4727">entry / do...end</text><rect fill="#FEFECE" filter="url(#fdytbvoulv61g)" height="67.7969" rx="12.5" ry="12.5" style="stroke: #A80036; stroke-width: 1.5;" width="194" x="104" y="1077.4063"/><line style="stroke: #A80036; stroke-width: 1.5;" x1="104" x2="298" y1="1105.0156" y2="1105.0156"/><text fill="#000000" font-family="sans-serif" font-size="14" lengthAdjust="spacingAndGlyphs" textLength="89" x="156.5" y="1096.9395">GetPosition_5</text><text fill="#000000" font-family="sans-serif" font-size="12" lengthAdjust="spacingAndGlyphs" textLength="174" x="109" y="1122.4727">entry / Rover!GetRoverPosition()</text><text fill="#000000" font-family="sans-serif" font-size="12" lengthAdjust="spacingAndGlyphs" textLength="0" x="112" y="1137.5664"/><rect fill="#FEFECE" filter="url(#fdytbvoulv61g)" height="67.7969" rx="12.5" ry="12.5" style="stroke: #A80036; stroke-width: 1.5;" width="204" x="209" y="1215.4063"/><line style="stroke: #A80036; stroke-width: 1.5;" x1="209" x2="413" y1="1243.0156" y2="1243.0156"/><text fill="#000000" font-family="sans-serif" font-size="14" lengthAdjust="spacingAndGlyphs" textLength="98" x="262" y="1234.9395">GetCompass_3</text><text fill="#000000" font-family="sans-serif" font-size="12" lengthAdjust="spacingAndGlyphs" textLength="184" x="214" y="1260.4727">entry / Rover!GetRoverCompass()</text><text fill="#000000" font-family="sans-serif" font-size="12" lengthAdjust="spacingAndGlyphs" textLength="0" x="217" y="1275.5664"/><!--link FiniteDifferences_2 to GetPosition_5--><path d="M221.307,1015.2293 C208.932,1021.4603 197.6172,1029.9203 190,1041.4063 C184.0655,1050.3543 183.55,1061.3643 185.4155,1071.9393 " fill="none" id="FiniteDifferences_2-GetPosition_5" style="stroke: #A80036; stroke-width: 1.0;"/><polygon fill="#A80036" points="186.5093,1077.0853,188.5498,1067.4501,185.4693,1072.1946,180.7248,1069.1141,186.5093,1077.0853" style="stroke: #A80036; stroke-width: 1.0;"/><text fill="#000000" font-family="sans-serif" font-size="13" lengthAdjust="spacingAndGlyphs" textLength="191" x="191" y="1055.9014">t:Timer?timer_timeout[(t.id == 1)]</text><!--link GetPosition_5 to GetCompass_3--><path d="M210.727,1145.8153 C216.727,1162.5213 225.668,1182.3342 238,1197.4063 C242.213,1202.555 247.072,1207.4138 252.241,1211.9347 " fill="none" id="GetPosition_5-GetCompass_3" style="stroke: #A80036; stroke-width: 1.0;"/><polygon fill="#A80036" points="256.249,1215.3251,251.9603,1206.459,252.4314,1212.0962,246.7941,1212.5672,256.249,1215.3251" style="stroke: #A80036; stroke-width: 1.0;"/><text fill="#000000" font-family="sans-serif" font-size="13" lengthAdjust="spacingAndGlyphs" textLength="143" x="239" y="1177.9014">pos:Rover?RoverPosition</text><text fill="#000000" font-family="sans-serif" font-size="13" lengthAdjust="spacingAndGlyphs" textLength="86" x="239" y="1194.2529">action do...end</text><!--link GetCompass_3 to FiniteDifferences_2--><path d="M369.334,1215.3739 C374.787,1210.0569 379.552,1204.0734 383,1197.4063 C414.847,1135.8203 419.846,1100.1393 383,1041.4063 C379.252,1035.4313 374.426,1030.2583 368.958,1025.7813 " fill="none" id="GetCompass_3-FiniteDifferences_2" style="stroke: #A80036; stroke-width: 1.0;"/><polygon fill="#A80036" points="364.659,1022.4913,369.3762,1031.1369,368.63,1025.5295,374.2374,1024.7833,364.659,1022.4913" style="stroke: #A80036; stroke-width: 1.0;"/><text fill="#000000" font-family="sans-serif" font-size="13" lengthAdjust="spacingAndGlyphs" textLength="162" x="409" y="1100.4014">comp:Rover?RoverCompass</text><text fill="#000000" font-family="sans-serif" font-size="13" lengthAdjust="spacingAndGlyphs" textLength="114" x="409" y="1116.7529">action PushItem(...)</text><text fill="#000000" font-family="sans-serif" font-size="13" lengthAdjust="spacingAndGlyphs" textLength="0" x="413" y="1133.1045"/><!--link *start*Estimate_3 to FiniteDifferences_2--><path d="M293,933.4623 C293,941.4783 293,953.6553 293,965.1333 " fill="none" id="*start*Estimate_3-FiniteDifferences_2" style="stroke: #A80036; stroke-width: 1.0;"/><polygon fill="#A80036" points="293,970.3413,297,961.3413,293,965.3413,289,961.3413,293,970.3413" style="stroke: #A80036; stroke-width: 1.0;"/><!--link WaitForStarted_3 to Bootstrap_2--><path d="M351.5,235.6994 C351.5,248.2294 351.5,264.9394 351.5,284.0694 " fill="none" id="WaitForStarted_3-Bootstrap_2" style="stroke: #A80036; stroke-width: 1.0;"/><polygon fill="#A80036" points="351.5,289.5294,355.5,280.5294,351.5,284.5294,347.5,280.5294,351.5,289.5294" style="stroke: #A80036; stroke-width: 1.0;"/><text fill="#000000" font-family="sans-serif" font-size="13" lengthAdjust="spacingAndGlyphs" textLength="142" x="352.5" y="268.1045">Rover?SimulationStarted</text><!--link Bootstrap_2 to Estimate_3--><path d="M351.5,783.7574 C351.5,799.7724 351.5,815.8774 351.5,831.8384 " fill="none" id="Bootstrap_2-Estimate_3" style="stroke: #A80036; stroke-width: 1.0;"/><polygon fill="#A80036" points="351.5,837.2454,355.5,828.2454,351.5,832.2454,347.5,828.2454,351.5,837.2454" style="stroke: #A80036; stroke-width: 1.0;"/><text fill="#000000" font-family="sans-serif" font-size="13" lengthAdjust="spacingAndGlyphs" textLength="191" x="352.5" y="816.1045">t:Timer?timer_timeout[(t.id == 1)]</text><!--link *start*Estimator to WaitForStarted_3--><path d="M351.5,148.7594 C351.5,156.7994 351.5,168.9394 351.5,180.2594 " fill="none" id="*start*Estimator-WaitForStarted_3" style="stroke: #A80036; stroke-width: 1.0;"/><polygon fill="#A80036" points="351.5,185.3894,355.5,176.3894,351.5,180.3894,347.5,176.3894,351.5,185.3894" style="stroke: #A80036; stroke-width: 1.0;"/><!--link *start to Estimator--><path d="M362.5,28.11 C362.5,38.58 362.5,57.61 362.5,82.81 " fill="none" id="*start-Estimator" style="stroke: #A80036; stroke-width: 1.0;"/><polygon fill="#A80036" points="362.5,87.94,366.5,78.94,362.5,82.94,358.5,78.94,362.5,87.94" style="stroke: #A80036; stroke-width: 1.0;"/><text fill="#000000" font-family="sans-serif" font-size="14" lengthAdjust="spacingAndGlyphs" textLength="241" x="248" y="1338.5332">Behavior of thing RoverStateEstimator</text><!--
@startuml
skinparam defaultTextAlignment left
caption Behavior of thing RoverStateEstimator
[*] - -> Estimator
state Estimator{
state WaitForStarted_3{

WaitForStarted_3 - -> Bootstrap_2 : Rover?SimulationStarted
}
state Bootstrap_2{
state GetPosition_4{
	GetPosition_4 : entry / Rover!GetRoverPosition()\n

GetPosition_4 - -> GetCompass_2 : pos:Rover?RoverPosition\naction do...end
}
state GetCompass_2{
	GetCompass_2 : entry / Rover!GetRoverCompass()\n

GetCompass_2 - -> Wait_2 : comp:Rover?RoverCompass\naction PushItem(...)\n
}
state Wait_2{
	Wait_2 : entry / do...end

Wait_2 - -> GetPosition_4 : t:Timer?timer_timeout[(t.id == 1 and SamplesRead < N)]
}
[*] - -> GetPosition_4

Bootstrap_2 - -> Estimate_3 : t:Timer?timer_timeout[(t.id == 1)]
	Bootstrap_2 : entry / println "Bootstrapping Rover estimator..."\n
}
state Estimate_3{
state FiniteDifferences_2{
	FiniteDifferences_2 : entry / do...end

FiniteDifferences_2 - -> GetPosition_5 : t:Timer?timer_timeout[(t.id == 1)]
}
state GetPosition_5{
	GetPosition_5 : entry / Rover!GetRoverPosition()\n

GetPosition_5 - -> GetCompass_3 : pos:Rover?RoverPosition\naction do...end
}
state GetCompass_3{
	GetCompass_3 : entry / Rover!GetRoverCompass()\n

GetCompass_3 - -> FiniteDifferences_2 : comp:Rover?RoverCompass\naction PushItem(...)\n
}
[*] - -> FiniteDifferences_2
	Estimate_3 : entry / println "Estimating Rover state..."\n
}
[*] - -> WaitForStarted_3
}
@enduml

PlantUML version 1.2017.15(Mon Jul 03 18:45:34 CEST 2017)
(GPL source distribution)
Java Runtime: Java(TM) SE Runtime Environment
JVM: Java HotSpot(TM) 64-Bit Server VM
Java Version: 1.8.0_151-b12
Operating System: Windows 10
OS Version: 10.0
Default Encoding: Cp1252
Language: en
Country: GB
--></g></svg>